<?xml version="1.0" encoding="UTF-8"?>
<svg width="232px" height="220px" viewBox="0 0 232 220" version="1.1" xmlns="http://www.w3.org/2000/svg" xmlns:xlink="http://www.w3.org/1999/xlink">
    <!-- Generator: Sketch 52.6 (67491) - http://www.bohemiancoding.com/sketch -->
    <title>Load</title>
    <desc>Created with Sketch.</desc>
    <g id="Symbols" stroke="none" stroke-width="1" fill="none" fill-rule="evenodd">
        <g id="Load" fill="#FFFFFF">
            <path d="M121.495235,170.045707 C119.950178,170.66143 118.264627,171 116.5,171 L114.5,171 C113.271322,171 112.08098,170.835858 110.949708,170.528307 C108.110205,170.152355 105.367372,168.873469 103.185552,166.691649 L39.5459415,103.052038 C34.2738636,97.7799603 34.2738636,89.232233 39.5459415,83.9601551 L40.9601551,82.5459415 C46.232233,77.2738636 54.7799603,77.2738636 60.0520382,82.5459415 L101,123.493903 L101,13.5 C101,6.04415588 107.044156,1.36961635e-15 114.5,0 L116.5,0 C123.955844,-1.36961635e-15 130,6.04415588 130,13.5 L130,122.731493 L170.185552,82.5459415 C175.45763,77.2738636 184.005357,77.2738636 189.277435,82.5459415 L190.691649,83.9601551 C195.963726,89.232233 195.963726,97.7799603 190.691649,103.052038 L127.052038,166.691649 C125.442847,168.30084 123.52848,169.41886 121.495235,170.045707 Z M209,197 L209,165.5 C209,159.148725 214.148725,154 220.5,154 C226.851275,154 232,159.148725 232,165.5 L232,208.5 C232,214.851275 226.851275,220 220.5,220 L11.5,220 C5.14872538,220 7.77806814e-16,214.851275 0,208.5 L3.55271368e-15,165.5 C7.10542736e-15,159.148725 5.14872538,154 11.5,154 C17.8512746,154 23,159.148725 23,165.5 L23,197 L209,197 Z"></path>
        </g>
    </g>
</svg>